<svg width="24" height="24" viewBox="0 0 24 24"
          fill="none" xmlns="http://www.w3.org/2000/svg">
          <path
            d="M23.4984 6.22346C23.2224 5.1908 22.4093 4.37766 21.3766 4.10171C19.5048 3.6001 11.9999 3.6001 11.9999 3.6001C11.9999 3.6001 4.49498 3.6001 2.62312 4.10171C1.5907 4.37766 0.777375 5.1908 0.501375 6.22346C0 8.09508 0 12.0001 0 12.0001C0 12.0001 0 15.9052 0.501375 17.7766C0.777375 18.8093 1.5907 19.6226 2.62312 19.8986C4.49498 20.4 11.9999 20.4 11.9999 20.4C11.9999 20.4 19.5048 20.4 21.3766 19.8986C22.4093 19.6226 23.2224 18.8093 23.4984 17.7766C24 15.9052 24 12.0001 24 12.0001C24 12.0001 24 8.09508 23.4984 6.22346Z"
            fill="#ED1F24" />
          <path d="M9 15.6001L15.2352 12.0001L9 8.40002V15.6001Z" fill="white" />
        </svg>