<svg width="1440" height="163" viewBox="0 0 1440 163" fill="none" xmlns="http://www.w3.org/2000/svg">
<path d="M0 2.00009L1440 2.00012V102.5C1131 -87 1189.5 21 364.5 150.216C99.0299 191.795 0 126 0 12.7891V2.00009Z" fill="url(#paint0_linear_59_146)"/>
<path d="M330.5 155C530.5 125 646.058 100.796 693 91.5001C743.5 81.5002 775.5 74.5001 808.5 67.5001C864 55.5001 968 32.0001 1014.5 22.0001C1061.38 11.9187 1097.14 5.56198 1137.5 2.00012C1225 -3.49998 1282 15 1345 47.7501C1388 70.0001 1410 84 1440 102.5C1119.5 -40.5 1125.5 67.5002 330.5 155Z" fill="#E35B2B"/>
<defs>
<linearGradient id="paint0_linear_59_146" x1="1440" y1="81.5721" x2="360.813" y2="-571.359" gradientUnits="userSpaceOnUse">
<stop stop-color="white" stop-opacity="0"/>
<stop offset="0.475" stop-color="#4E5467"/>
<stop offset="1" stop-color="#1C1E2B"/>
</linearGradient>
</defs>
</svg>
