<svg xmlns="http://www.w3.org/2000/svg" width="1440" height="527" fill="none"><path fill="url(#a)" d="M0 0h1440v466.5C1131 277 1189.5 385 364.5 514.216 99.03 555.795 0 490 0 376.789V0Z"/><path fill="#E35B2B" d="M330.5 519c200-30 315.558-54.204 362.5-63.5 50.5-10 82.5-17 115.5-24 55.5-12 159.5-35.5 206-45.5 46.88-10.081 82.64-16.438 123-20 87.5-5.5 144.5 13 207.5 45.75 43 22.25 65 36.25 95 54.75-320.5-143-314.5-35-1109.5 52.5Z"/><defs><linearGradient id="a" x1="1440" x2="15.474" y1="263.761" y2="-2.313" gradientUnits="userSpaceOnUse"><stop stop-color="#fff" stop-opacity="0"/><stop offset=".475" stop-color="#4E5467"/><stop offset="1" stop-color="#1C1E2B"/></linearGradient></defs></svg>