<svg xmlns="http://www.w3.org/2000/svg" width="1440" height="615" fill="none"><path fill="#E35B2B" d="M340.5 156.5c-30.914 4.619-46.5 5.75-76 5.75-68.5-1.5-116-19.485-187-58.75C50.472 88.553 21 70.5 0 57.25c319.391 143 352.751 34.146 1145-53.354-81 10.354-122.7 17.388-200 30.854-203.5 34.5-382.5 76.5-497.5 101.6-54.042 11.709-92.142 18.455-107 20.15Z"/><path fill="url(#a)" d="M1440 613 0 615V57.25c306.5 192.145 254 85.145 1075.5-44.57C1340.92-29.23 1440 36.894 1440 150.105V613Z"/><defs><linearGradient id="a" x1="720" x2="720" y1="13" y2="722" gradientUnits="userSpaceOnUse"><stop stop-color="#1C1E2B"/><stop offset="1" stop-color="#4E5467"/></linearGradient></defs></svg>