<svg xmlns="http://www.w3.org/2000/svg" width="1440" height="724" fill="none"><path fill="#E35B2B" d="M340.5 156.25c-30.914 4.619-46.5 5.75-76 5.75-68.5-1.5-116-19.485-187-58.75C50.472 88.303 21 70.25 0 57 319.391 200 352.751 91.145 1145 3.645 1064 14 1022.3 21.034 945 34.5 741.5 69 562.5 111 447.5 136.1c-54.042 11.709-92.142 18.454-107 20.15Z"/><path fill="url(#a)" d="M1440 724H0V57.25c306.5 192.145 254 85.145 1075.5-44.57C1340.92-29.23 1440 36.894 1440 150.105V724Z"/><defs><linearGradient id="a" x1="720" x2="720" y1="15" y2="724" gradientUnits="userSpaceOnUse"><stop stop-color="#1C1E2B"/><stop offset="1" stop-color="#4E5467"/></linearGradient></defs></svg>